:SAMPLES-PER-SECOND 30
:FULLY-SPECIFIED
:DEGREES
358
root  -44.8372 39.7048 -8.13841 -146.512 -86.0086 145.659
RightUpLeg  4.47806 -10.6052 -10.9459
RightLeg  13.7714 9.41572 0.60885
RightFoot  -13.9345 0.0245021 5.25545
RightToes  -9.31324e-010 0 -3.6325e-017
Spine  7.73214 0.609655 8.82608
Spine1  7.0585 1.27325 -0.852398
HEad  -19.2913 3.08752 -7.74843
LeftShoulder1  -0.577435 5.20013 -27.8548
LeftArm  12.4979 60.0737 -6.14385
LeftForeArm  20.4211 -11.9701 -5.99692
LeftHand  -0.0820152 10.9342 -0.404125
RightShoulder  -1.31745 -6.88503 32.432
RightArm  46.3252 -31.1235 23.2857
RightForeArm  13.962 25.8938 4.80712
RightHand  0.0981035 5.71921 0.692098
LeftUpLeg  -25.2009 12.9663 -2.16208
LeftLeg  25.7109 -2.87739 -1.15005
LeftFoot  0.752938 0.342702 -3.27528
LeftToes  8.61288e-010 -5.99147e-011 2.1039e-011
359
root  -45.9982 39.6314 -8.05724 -144.349 -85.4207 144.215
RightUpLeg  7.13143 -11.5899 -12.282
RightLeg  10.6869 10.9413 0.449048
RightFoot  -14.5922 0.0541562 5.40885
RightToes  -9.31324e-010 0 -3.6325e-017
Spine  6.59487 1.09853 8.1536
Spine1  7.94351 2.1524 -2.93888
HEad  -20.7731 2.23867 -6.36533
LeftShoulder1  -0.648991 5.45534 -26.9941
LeftArm  11.1706 60.911 -7.43473
LeftForeArm  20.0297 -11.2754 -5.82424
LeftHand  -0.195034 11.9168 -2.20812
RightShoulder  -1.43485 -7.09458 33.4395
RightArm  49.3972 -27.5926 22.5925
RightForeArm  9.35855 24.8337 4.80469
RightHand  0.181337 3.55365 2.14546
LeftUpLeg  -23.5062 9.85311 -0.94937
LeftLeg  12.5161 0.63387 0.00203076
LeftFoot  2.81339 0.283971 -2.46039
LeftToes  8.61288e-010 -5.99147e-011 2.1039e-011
360
root  -47.1735 39.4403 -7.8948 -147.246 -84.7244 147.149
RightUpLeg  9.75384 -11.8879 -13.6039
RightLeg  9.05562 12.3561 0.316729
RightFoot  -15.7828 0.118309 5.77948
RightToes  -9.31324e-010 0 -3.6325e-017
Spine  5.85745 1.62108 7.50457
Spine1  9.11485 2.99259 -4.19501
HEad  -21.7265 1.69483 -5.83427
LeftShoulder1  -0.810133 5.8509 -28.3448
LeftArm  11.5537 59.193 -8.09619
LeftForeArm  23.9944 -11.3254 -6.29627
LeftHand  -0.316173 11.176 -4.93986
RightShoulder  -1.42179 -7.09227 33.0782
RightArm  48.7983 -23.2771 24.182
RightForeArm  9.01047 21.1407 5.11677
RightHand  0.295961 2.03277 4.41527
LeftUpLeg  -21.6786 3.99701 1.94401
LeftLeg  3.72227 5.90913 -0.654377
LeftFoot  4.46143 0.145554 -1.2287
LeftToes  8.61288e-010 -5.99147e-011 2.1039e-011
361
root  -48.4413 39.0952 -7.61361 -150.217 -84.2546 149.878
RightUpLeg  11.888 -11.6437 -14.8125
RightLeg  9.32475 13.17 0.11556
RightFoot  -17.7267 0.265274 6.90636
RightToes  -9.31324e-010 0 -3.6325e-017
Spine  5.52738 2.0569 6.85441
Spine1  9.38124 3.43888 -4.17686
HEad  -22.0486 1.78507 -5.87624
LeftShoulder1  -0.816299 5.73062 -30.4857
LeftArm  9.21725 56.4935 -11.2331
LeftForeArm  30.0456 -11.1525 -6.46236
LeftHand  -0.308477 9.88697 -6.18475
RightShoulder  -1.26895 -6.80841 31.891
RightArm  40.2651 -18.2306 26.2728
RightForeArm  17.8421 15.447 7.58245
RightHand  0.338513 1.32945 5.76676
LeftUpLeg  -21.2357 4.33716 2.02516
LeftLeg  2.35706 5.82389 -0.749678
LeftFoot  5.12526 0.289109 -2.18873
LeftToes  8.61288e-010 -5.99147e-011 2.1039e-011
362
root  -49.7428 38.7327 -7.23823 -142.823 -84.0286 142.273
RightUpLeg  13.6533 -10.2191 -16.7138
RightLeg  10.6723 12.3699 0.282227
RightFoot  -19.6507 0.499077 8.66415
RightToes  -9.31324e-010 0 -3.6325e-017
Spine  5.34627 1.84109 6.01922
Spine1  8.93831 3.61938 -5.98319
HEad  -21.4223 2.15396 -4.98207
LeftShoulder1  -0.849454 5.82456 -30.4145
LeftArm  6.12999 53.2701 -16.3934
LeftForeArm  34.9358 -11.5943 -6.52129
LeftHand  -0.395575 10.0397 -8.11477
RightShoulder  -1.26362 -6.77551 32.0966
RightArm  27.1144 -13.4971 27.8023
RightForeArm  30.653 10.427 8.45119
RightHand  0.24187 -0.497557 5.78889
LeftUpLeg  -22.641 5.04272 0.346276
LeftLeg  7.8964 6.43359 -0.383054
LeftFoot  8.89743 0.00389066 -0.462889
LeftToes  8.61288e-010 -5.99147e-011 2.1039e-011
363
root  -51.014 38.4445 -6.82353 -128.786 -83.4108 127.382
RightUpLeg  15.2093 -5.39432 -18.2711
RightLeg  13.485 8.30772 0.400223
RightFoot  -20.6876 0.871009 12.2846
RightToes  -9.31324e-010 0 -3.6325e-017
Spine  6.10363 1.68692 3.97024
Spine1  7.92696 3.54963 -7.07397
HEad  -20.314 2.15181 -4.19941
LeftShoulder1  -1.04422 6.28541 -31.3525
LeftArm  2.23056 46.948 -20.6961
LeftForeArm  36.7415 -10.9827 -6.56061
LeftHand  -0.384056 9.56456 -8.67241
RightShoulder  -1.23387 -6.72051 31.8331
RightArm  16.5347 -10.8712 29.6374
RightForeArm  29.0613 8.67108 6.51984
RightHand  0.0734299 -0.355548 1.84756
LeftUpLeg  -23.883 7.24186 -3.15895
LeftLeg  14.5324 3.69747 0.0533694
LeftFoot  10.4042 -0.877352 4.30687
LeftToes  8.61288e-010 -5.99147e-011 2.1039e-011
